<svg xmlns="http://www.w3.org/2000/svg" viewBox="0 0 512 512"><path d="M213.5 508.5c-4-.7-8.2-1.5-12.2-2.4l12.2 3zm5 .8l-3.3-.5c1 0 2.2.3 3.3.5zm92.2-3.3c-4 1-8 1.8-12.2 2.5 4-.7 8.2-1.5 12.2-2.4zm-79.5 4.8c-.8 0-1.6 0-2.3-.2l2 .2zm12.8 1h-1.6 1.5zm6 .2h-1.6 1.7zm-13-.7c-.8 0-1.4 0-2-.2.6 1 1.2 1 2 1zm59.8-2.5c-1 0-2.2.3-3.3.5l3.3-.5zM225 510c-1.3 0-2.6-.2-4-.4l4 .5zm44.6 1.6H268h1.6zM178.3 500l-1.7-.6-1.7-.6-6-2c-18-6.3-34-14.4-50-24.2l6-97.8c1-16.2 12-29.8 28-33.3l39-8.8-3-3.6 18-9v-18l-23-9c-14-5-23-19-23-34v-21c-10 0-18.6-8-18.6-18 0-6 3.2-12 8.3-15l-4.4-45c-1-13 5-25 15-33 1-10 6-19 15.7-26 26.5-19 186-28 186-28l-11 55-1.3 4c6 8 9 17 8 28l-4.5 45c5 4 8.6 9 8.6 16 0 10-8 19-18.2 19v21c0 15-9 29-23 34l-23 9v18l18.5 9-3 4 40 9c16 4 27.7 17 28.8 33l6.6 98c-15 10-32 18-49 25l-6 2-2 .5-2 .6c-7.4 2.3-15 4.4-23 6 117-26 203-128 203-251C512 114.6 397.6 0 256 0S0 114.6 0 256c0 122.6 86.2 225 201.2 250-7.8-1.6-15.4-3.7-23-6zm112.7 9.6l-4 .5h4zm-14 1.4c-.6.2-1.2.2-2 .3.8 0 1.4 0 2-.2zm6-.4c-.6 0-1.4 0-2.2.2l2.3-.2zm-21 1.4h1.6-1.7z" fill="#FFA055"/><g fill="#B4EBBE"><path d="M268 511.7h1.6l5.5-.4c1 0 2 0 2-.2h24l13-2 23-6v-92c0-11 4-21 12-29l28.8-29c2.5 2 4.5 5 6 7l-28 28c-6 6-9.2 14-9.2 23v88c17.8-6 34-14 49.8-24l-6.4-98c-1-16-13-30-29-33l-40-8.4-28 42c-3 4.8-10 5.5-14 1.4l-15-15v151h-5 12z"/><path d="M337 498.8l-1.6.6 1.7-.6zm-160.4.6l-1.7-.6 1 .6z"/><path d="M251.4 361l-15 15c-4 4.2-10.8 3.5-14-1.3l-28-42-39.7 8.8c-15.8 3.5-27.4 17-28.5 33.3l-6.5 97.8c15.4 9.8 32 18 49.4 24.2v-88.5c0-8.6-3-16.6-9-22.6l-28-28c2-2.6 4-5 6-7l28 28.3c8 7.8 12 18 12 29v92c8 2.3 16 4.4 23 6 4 1 9 1.8 13 2.5l2 .3c1 0 3 .3 4 .5l3 .3 4 .5c1 1 3 1 4 1h2l4 1 2 1 6 1h2c1.6 0 3 0 4.6 1h7.6-4.6V361z"/></g><path d="M269.6 314.6c-8.7 3.5-18.5 3.5-27.2 0l-32-13V320l45.6 36.6 45.7-36.6v-18.3l-32 13z" fill="#EBC89B"/><path d="M318.7 155.4H329c10.2 0 18.4 8.2 18.4 18.3V201c3.6 0 7 1.2 9.8 3l4.5-45c1-10.4-2.4-20-8.7-27.4-5.6 14.7-18.8 23.8-34.3 23.8zm-154 18.3c0-10 8-18.3 18.2-18.3h5c-12 0-22-8.5-24-19.7l-1-1.8v-8c-10 7-16 19-15 33l4 45c3-2 6-3 10-3v-28z" fill="#968687"/><path d="M269.6 314.6l32-13 22.8-9c14-5.5 23-19 23-34v-21c10 0 18.3-8 18.3-18.2 0-6.5-3.4-12.2-8.5-15.4-2.8-1.8-6.2-3-9.8-3v-27.3c0-10-8.2-18.3-18.3-18.3H183c-10 0-18.2 8.2-18.2 18.3V201c-3.6 0-7 1.2-9.8 3-5 3.2-8.5 9-8.5 15.4 0 10 8.2 18.3 18.3 18.3v21c0 15 9 28.4 23 34l22.7 9 32 13c8.8 3.4 18.6 3.4 27.3 0zM227 263.3c2.3-4.5 7.8-6.3 12.3-4 9.2 4.6 24.2 4.6 33.4 0 4.5-2.3 10-.5 12.3 4s.4 10-4 12.3c-7.3 3.6-16 5.5-25 5.5s-17.7-1-25-5c-4.4-2-6.2-8-4-12zm74.7-62.2c5 0 9.2 5 9.2 10v9c0 5-5 10-10 10s-9-4-9-9v-9c0-5 4-9 9-9zM201 220v-9c0-5.2 4.2-9.3 9.3-9.3 5 0 9 4.2 9 9.3v9c0 5.2-4 9.3-9 9.3s-9.2-4-9.2-9.2z" fill="#F5DCAA"/><path d="M219.4 219.4v-9c0-5.2-4-9.3-9-9.3-5.2 0-9.3 5-9.3 10v9c0 5 5 10 10 10s9-4 9-9zm82.3 9.2c5 0 9.2-4 9.2-9.2v-9c0-5.2-5-9.3-10-9.3s-9 5-9 10v9c0 5 4 10 9 10zm-36.3-104s17.7-8.2 33-18.7c-9.7 1-20.5 3-32.7 4-62 4-96.3 5-100.6 26v-1c2 11 12 19 24 19h130c16 0 29-9 35-24l2-4 11-55s-26 48-100 51zM164.7 134v-.5.4z" fill="#464655"/><path d="M164.6 131.2v2.8l.4 1.7v.5c4.4-20.5 38.8-22 100.7-26.2 12.2-.8 23-2.3 32.6-4-15.2 10.4-33 18.6-33 18.6C339.8 121 365.8 73 365.8 73s-159.8 8.6-185 27c-10 7-14.8 16-16 26.3l-.3 5.2z" fill="#5C5D6E"/><path d="M260.6 361l15 15c4 4.2 10.8 3.5 14-1.3l28-42 2.4-3.6-18.3-9-45.7 37-45.7-36-18.3 9 2.4 4 28 42c3.2 5 10 6 14 2l15-15v151h9.2V361zm74.8 138.4l1.7-.6 6-2v-88.5c0-8.6 4-16.6 10-22.6l28-28c-1-2.6-3-5-6-7L346 379c-7.8 7.8-12 18-12 29v92l1.6-.6zm-160.4-.6l1.6.6 1.7.6v-91.7c0-11-4.3-21.3-12-29l-28.6-28.7c-2.3 2-4.3 4.5-6 7l28 28c6 6 9.4 14 9.4 22.7v88.5l6 2z" fill="#9BDCB4"/><path d="M231 275.6c7.3 3.6 16 5.5 25 5.5s17.7-1 25-5c4.4-2 6.2-8 4-12-2.3-4-7.8-6-12.3-4-9.2 5-24.2 5-33.4 0-4.5-2-10 0-12.3 4-2.2 5-.4 10 4 13z" fill="#DCB491"/></svg>